<svg width="172" height="157" viewBox="0 0 172 157" fill="none" xmlns="http://www.w3.org/2000/svg">
<g clip-path="url(#clip0_3_16)">
<path d="M21.5218 140.135C20.6434 140.135 19.7807 140.463 19.1594 141.033C18.5381 141.604 18.1805 142.395 18.1805 143.202C18.1805 144.008 18.5381 144.799 19.1594 145.37C19.7807 145.94 20.6434 146.268 21.5218 146.268C22.4003 146.268 23.263 145.94 23.8843 145.37C24.5056 144.799 24.8632 144.008 24.8632 143.202C24.8632 142.395 24.5056 141.604 23.8843 141.033C23.263 140.463 22.4003 140.135 21.5218 140.135Z" fill="black"/>
<path d="M85.6764 140.135C84.798 140.135 83.9352 140.463 83.3139 141.033C82.6927 141.604 82.335 142.395 82.335 143.202C82.335 144.008 82.6927 144.799 83.3139 145.37C83.9352 145.94 84.798 146.268 85.6764 146.268C86.5548 146.268 87.4176 145.94 88.0389 145.37C88.6602 144.799 89.0178 144.008 89.0178 143.202C89.0178 142.395 88.6602 141.604 88.0389 141.033C87.4176 140.463 86.5548 140.135 85.6764 140.135Z" fill="black"/>
<path d="M64.2915 140.135C63.4131 140.135 62.5504 140.463 61.9291 141.033C61.3078 141.604 60.9502 142.395 60.9502 143.202C60.9502 144.008 61.3078 144.799 61.9291 145.37C62.5504 145.94 63.4131 146.268 64.2915 146.268C65.17 146.268 66.0327 145.94 66.654 145.37C67.2753 144.799 67.6329 144.008 67.6329 143.202C67.6329 142.395 67.2753 141.604 66.654 141.033C66.0327 140.463 65.17 140.135 64.2915 140.135Z" fill="black"/>
<path d="M42.9067 140.135C42.0283 140.135 41.1655 140.463 40.5442 141.033C39.9229 141.604 39.5653 142.395 39.5653 143.202C39.5653 144.008 39.9229 144.799 40.5442 145.37C41.1655 145.94 42.0283 146.268 42.9067 146.268C43.7851 146.268 44.6479 145.94 45.2692 145.37C45.8904 144.799 46.2481 144.008 46.2481 143.202C46.2481 142.395 45.8904 141.604 45.2692 141.033C44.6479 140.463 43.7851 140.135 42.9067 140.135Z" fill="black"/>
<path d="M149.831 140.135C148.953 140.135 148.09 140.463 147.469 141.033C146.847 141.604 146.49 142.395 146.49 143.202C146.49 144.008 146.847 144.799 147.469 145.37C148.09 145.94 148.953 146.268 149.831 146.268C150.709 146.268 151.572 145.94 152.193 145.37C152.815 144.799 153.172 144.008 153.172 143.202C153.172 142.395 152.815 141.604 152.193 141.033C151.572 140.463 150.709 140.135 149.831 140.135Z" fill="black"/>
<path d="M107.061 140.135C106.183 140.135 105.32 140.463 104.699 141.033C104.078 141.604 103.72 142.395 103.72 143.202C103.72 144.008 104.078 144.799 104.699 145.37C105.32 145.94 106.183 146.268 107.061 146.268C107.94 146.268 108.802 145.94 109.424 145.37C110.045 144.799 110.403 144.008 110.403 143.202C110.403 142.395 110.045 141.604 109.424 141.033C108.802 140.463 107.94 140.135 107.061 140.135Z" fill="black"/>
<path d="M128.446 140.135C127.568 140.135 126.705 140.463 126.084 141.033C125.462 141.604 125.105 142.395 125.105 143.202C125.105 144.008 125.462 144.799 126.084 145.37C126.705 145.94 127.568 146.268 128.446 146.268C129.325 146.268 130.187 145.94 130.809 145.37C131.43 144.799 131.788 144.008 131.788 143.202C131.788 142.395 131.43 141.604 130.809 141.033C130.187 140.463 129.325 140.135 128.446 140.135Z" fill="black"/>
<path d="M33.5508 6.13318C34.4292 6.13318 35.292 5.80498 35.9133 5.23482C36.5345 4.66466 36.8922 3.8729 36.8922 3.06677C36.8922 2.26064 36.5345 1.46889 35.9133 0.898728C35.292 0.328567 34.4292 0.000366211 33.5508 0.000366211C32.6724 0.000366211 31.8096 0.328567 31.1883 0.898728C30.567 1.46889 30.2094 2.26064 30.2094 3.06677C30.2094 3.8729 30.567 4.66466 31.1883 5.23482C31.8096 5.80498 32.6724 6.13318 33.5508 6.13318Z" fill="black"/>
<path d="M89.519 45.3832C90.3974 45.3832 91.2602 45.055 91.8815 44.4848C92.5027 43.9147 92.8604 43.1229 92.8604 42.3168C92.8604 41.5106 92.5027 40.7189 91.8815 40.1487C91.2602 39.5786 90.3974 39.2504 89.519 39.2504C88.6406 39.2504 87.7778 39.5786 87.1565 40.1487C86.5352 40.7189 86.1776 41.5106 86.1776 42.3168C86.1776 43.1229 86.5352 43.9147 87.1565 44.4848C87.7778 45.055 88.6406 45.3832 89.519 45.3832Z" fill="black"/>
<path d="M134.066 74.5739L142.169 67.1379C142.796 66.5629 143.148 65.7832 143.148 64.9698V45.3832H160.523C162.369 45.3832 163.865 44.0105 163.865 42.3168V30.6644H167.874C169.72 30.6644 171.216 29.2917 171.216 27.598V3.06677C171.216 1.37306 169.72 0.000366211 167.874 0.000366211H48.142C46.2964 0.000366211 44.8006 1.37306 44.8006 3.06677C44.8006 4.76048 46.2964 6.13318 48.142 6.13318H164.533V24.5316H6.81973V6.13318H18.683C20.5285 6.13318 22.0243 4.76048 22.0243 3.06677C22.0243 1.37306 20.5285 0.000366211 18.683 0.000366211H3.47835C1.63275 0.000366211 0.136963 1.37306 0.136963 3.06677V27.598C0.136963 29.2917 1.63275 30.6644 3.47835 30.6644H7.48801V42.3168C7.48801 44.0105 8.9838 45.3832 10.8294 45.3832H34.8874V64.9698C34.8874 65.7832 35.2398 66.5629 35.8663 67.1379L43.9691 74.5739C44.5957 75.1489 45.4454 75.4723 46.3316 75.4723H48.2164V79.4131L47.2009 81.6231C46.3603 83.4521 44.4194 84.6332 42.258 84.6332C35.6144 84.6332 30.2094 89.5933 30.2094 95.6902V99.2765C25.4336 101.698 22.1901 106.368 22.1901 111.719V112.231H18.1804C16.3348 112.231 14.8391 113.604 14.8391 115.297V129.41C6.70226 129.575 0.136963 135.696 0.136963 143.202C0.136963 150.81 6.88238 157 15.1732 157H156.18C164.47 157 171.216 150.81 171.216 143.202C171.216 135.696 164.651 129.575 156.514 129.41V115.297C156.514 113.604 155.018 112.231 153.172 112.231H149.163V111.719C149.163 105.645 144.985 100.45 139.129 98.4224C140.401 96.6293 141.143 94.4912 141.143 92.1974V91.3984C141.143 88.4626 139.903 85.698 137.651 83.6138L132.419 78.7711V75.3992C133.038 75.2747 133.612 74.992 134.066 74.5739ZM136.465 63.699L130.32 69.3395H125.235L119.09 63.699V45.3832H136.465V63.699ZM14.1708 30.6644H157.182V39.2504H104.555C102.71 39.2504 101.214 40.6231 101.214 42.3168C101.214 44.0105 102.71 45.3832 104.555 45.3832H112.407V64.9698C112.407 65.7832 112.76 66.5629 113.386 67.1379L121.489 74.5739C122.116 75.1489 122.965 75.4723 123.852 75.4723H125.736V79.4131L124.721 81.6231C123.88 83.4521 121.94 84.6332 119.778 84.6332C113.135 84.6332 107.73 89.5933 107.73 95.6902V99.2765C102.954 101.698 99.7102 106.368 99.7102 111.719V112.231H95.7006C93.855 112.231 92.3592 113.604 92.3592 115.297V129.403H78.9936V115.297C78.9936 113.604 77.4979 112.231 75.6523 112.231H71.6426V111.719C71.6426 105.645 67.4646 100.45 61.6093 98.4224C62.8806 96.6293 63.6233 94.4912 63.6233 92.1974V91.3984C63.6233 88.4626 62.3833 85.698 60.1305 83.6138L54.8991 78.7711V75.3992C55.5178 75.2747 56.0921 74.992 56.5463 74.5739L64.6492 67.1379C65.2757 66.5629 65.6281 65.7832 65.6281 64.9698V45.3832H74.8169C76.6625 45.3832 78.1583 44.0105 78.1583 42.3168C78.1583 40.6231 76.6625 39.2504 74.8169 39.2504H14.1708V30.6644ZM41.5701 63.699V45.3832H58.9453V63.699L52.8003 69.3395H47.7151L41.5701 63.699ZM36.8922 95.6902C36.8922 92.9748 39.299 90.766 42.258 90.766C46.5548 90.766 50.4613 88.6878 52.6124 85.365L55.3847 87.9308C56.3884 88.8591 56.9405 90.0916 56.9405 91.3984V92.1974C56.9405 95.1284 54.3418 97.5121 51.1492 97.5121H37.6727C37.4104 97.5121 37.1506 97.5181 36.8922 97.5301V95.6902ZM28.8729 111.719C28.8729 107.267 32.8199 103.645 37.6714 103.645H56.16C61.0128 103.645 64.9598 107.267 64.9598 111.719V112.231H28.8729V111.719ZM21.5218 118.364H72.3109V129.403H21.5218V118.364ZM164.533 143.202C164.533 147.429 160.786 150.868 156.18 150.868H15.1732C10.567 150.868 6.81973 147.429 6.81973 143.202C6.81973 138.974 10.567 135.536 15.1732 135.536H156.18C160.786 135.536 164.533 138.974 164.533 143.202ZM149.831 129.403H99.042V118.364H149.831V129.403ZM142.48 111.719V112.231H106.393V111.719C106.393 107.267 110.34 103.645 115.192 103.645H133.68C138.533 103.645 142.48 107.267 142.48 111.719ZM134.461 91.3984V92.1974C134.461 95.1284 131.862 97.5121 128.669 97.5121H115.193C114.93 97.5121 114.671 97.5181 114.412 97.5301V95.6902C114.412 92.9748 116.819 90.766 119.778 90.766C124.075 90.766 127.983 88.6878 130.132 85.3638L132.906 87.9308C133.909 88.8591 134.461 90.0916 134.461 91.3984Z" fill="black"/>
</g>
<defs>
<clipPath id="clip0_3_16">
<rect width="171.079" height="157" fill="white" transform="translate(0.136963 0.000366211)"/>
</clipPath>
</defs>
</svg>
