<svg width="99" height="106" viewBox="0 0 99 106" fill="none" xmlns="http://www.w3.org/2000/svg">
<g clip-path="url(#clip0_1_63)">
<path d="M97.1814 94.4448H87.1339L84.6944 69.6344L87.3941 73.9693L88.0628 77.5547C88.3857 79.2831 89.4003 80.7539 90.8482 81.5952C91.6684 82.0713 92.5694 82.3112 93.4753 82.3112C94.1688 82.3112 94.8655 82.1701 95.5293 81.8862C96.9591 81.2742 98.0923 80.0397 98.6408 78.4983C99.1877 76.9569 99.1069 75.2285 98.4184 73.7524L97.0085 70.7313C97.0035 70.719 96.9937 70.7119 96.9871 70.7013C96.9838 70.6925 96.9838 70.6837 96.9805 70.6749L87.0976 51.2752C86.9148 50.9154 86.6183 50.635 86.2642 50.4816L81.8004 48.5698C85.1507 45.6563 87.2986 41.2156 87.2986 36.2457C87.2986 33.5879 86.6446 30.9707 85.4422 28.6287L84.5923 19.5249C87.2442 18.3221 88.9457 15.9607 88.9457 13.3188C88.9457 9.52173 85.4258 6.41601 81.0345 6.26963C79.2835 3.01577 76.037 0.973511 72.4743 0.973511C68.9115 0.973511 65.665 3.01577 63.914 6.26963C59.5228 6.41601 56.0028 9.52173 56.0028 13.3188C56.0028 15.9607 57.7043 18.3221 60.3562 19.5249L59.5063 28.6287C58.3039 30.9707 57.6499 33.5879 57.6499 36.2457C57.6499 41.2156 59.7978 45.6563 63.1498 48.568L58.686 50.4798C58.4225 50.5927 58.1902 50.7778 58.0123 51.0159L52.4532 58.4566L45.7362 52.7037L43.9424 49.5028C43.6377 48.9578 43.249 48.4957 42.8289 48.0742V43.3001C42.8289 41.0039 41.447 39.064 39.5347 38.3338V30.9549H41.1818C43.9062 30.9549 46.1232 28.5811 46.1232 25.664V15.0824C46.1232 12.1654 43.9062 9.79156 41.1818 9.79156H34.5932C31.8688 9.79156 29.6518 12.1654 29.6518 15.0824V25.664C29.6518 28.5811 31.8688 30.9549 34.5932 30.9549H36.2404V38.3338C34.328 39.064 32.9461 41.0039 32.9461 43.3001V50.3546C32.9461 50.3563 32.9461 50.3599 32.9461 50.3616C32.5343 51.411 32.3498 52.5556 32.4832 53.7266C32.7188 55.7671 33.7976 57.5448 35.4431 58.603L38.5595 60.6047L49.5098 70.8636C51.3496 72.5849 54.046 72.6219 55.927 70.9447L60.5308 66.8355L57.8147 94.4448H29.0193L30.9514 90.3074C34.0348 89.0323 36.2371 85.8455 36.2371 82.0996V78.2478C38.1494 77.5177 39.5314 75.5777 39.5314 73.2815C39.5314 70.3645 37.3143 67.9907 34.5899 67.9907H4.94131C2.21693 67.9907 -0.00012207 70.3645 -0.00012207 73.2815C-0.00012207 75.5777 1.38183 77.5177 3.29417 78.2478V82.0996C3.29417 85.8455 5.4964 89.0323 8.57986 90.3074L10.512 94.4448H1.64702C0.737799 94.4448 -0.00012207 95.2349 -0.00012207 96.2084V103.263C-0.00012207 104.236 0.737799 105.026 1.64702 105.026H97.1814C98.0907 105.026 98.8286 104.236 98.8286 103.263V96.2084C98.8286 95.2349 98.0907 94.4448 97.1814 94.4448ZM36.2371 27.4277H34.5899C33.6823 27.4277 32.9428 26.6358 32.9428 25.664V15.0824C32.9428 14.1106 33.6823 13.3188 34.5899 13.3188H36.2371V27.4277ZM95.4717 75.3273C95.7534 75.9305 95.7863 76.6112 95.5623 77.2426C95.3383 77.8722 94.8919 78.3589 94.3072 78.6094C93.6928 78.8722 93.0026 78.8298 92.4195 78.4912C91.8364 78.1526 91.4247 77.5583 91.2945 76.8616L90.8696 74.5848L94.6531 73.5725L95.4717 75.3273ZM84.4902 53.5203L93.0685 70.3592L89.6721 71.2675L83.8807 61.9662L81.4891 52.2346L84.4902 53.5203ZM80.8747 64.4635L83.8231 94.4448H61.1271L64.0738 64.4635H80.8747ZM64.7294 60.9362L67.1573 51.0512C67.2232 51.0777 67.2907 51.0971 67.3566 51.1217C67.6877 51.2523 68.0204 51.3775 68.3613 51.4833C68.4915 51.5239 68.6232 51.5556 68.7534 51.5909C69.068 51.6791 69.3826 51.7637 69.7038 51.829C69.8652 51.8625 70.0282 51.8819 70.1897 51.9083C70.4878 51.9577 70.7843 52.0106 71.0874 52.0424C71.2998 52.0635 71.514 52.0653 71.7265 52.0776C71.9768 52.0917 72.2222 52.1182 72.4743 52.1182C72.7263 52.1182 72.9717 52.0917 73.2221 52.0776C73.4362 52.0653 73.6487 52.0635 73.8611 52.0424C74.1642 52.0124 74.4607 51.9595 74.7588 51.9083C74.9203 51.8819 75.0833 51.8625 75.2448 51.829C75.5659 51.7637 75.8805 51.6773 76.1952 51.5909C76.3253 51.5538 76.4571 51.5239 76.5872 51.4833C76.9281 51.3775 77.2625 51.254 77.5919 51.1217C77.6578 51.0953 77.7253 51.0777 77.7912 51.0512L80.2208 60.9362H64.7294ZM59.2971 13.3188C59.2971 11.407 61.5603 9.79156 64.2385 9.79156C64.3341 9.79156 64.4247 9.8039 64.5169 9.81449L64.7821 9.84094C65.4755 9.88503 66.141 9.47058 66.421 8.77748C67.462 6.17969 69.8388 4.50073 72.4743 4.50073C75.1097 4.50073 77.4865 6.17969 78.5292 8.77748C78.8075 9.47058 79.4829 9.89914 80.1681 9.84094L80.4333 9.81449C80.5238 9.8039 80.6144 9.79156 80.71 9.79156C83.3882 9.79156 85.6514 11.407 85.6514 13.3188C85.6514 14.7279 84.3205 16.0753 82.4148 16.5973C81.6258 16.8125 81.102 17.6132 81.1827 18.4809L82.1842 29.1913H62.7643L63.7642 18.4826C63.8449 17.6149 63.3211 16.8143 62.5321 16.5991C60.628 16.0753 59.2971 14.7279 59.2971 13.3188ZM60.9442 36.2457C60.9442 35.05 61.1106 33.8613 61.4301 32.7185H83.5167C83.8379 33.8613 84.0043 35.05 84.0043 36.2457C84.0043 41.1415 81.3211 45.3689 77.4536 47.3635C77.0797 47.5557 76.6975 47.7268 76.3105 47.8732C76.2923 47.8802 76.2742 47.8873 76.2561 47.8943C73.8019 48.8132 71.1434 48.8132 68.6891 47.8943C68.671 47.8873 68.6529 47.8802 68.6348 47.8732C68.2477 47.7268 67.8672 47.5557 67.4916 47.3635C63.6274 45.3689 60.9442 41.1415 60.9442 36.2457ZM39.5314 13.3188H41.1785C42.0861 13.3188 42.8256 14.1106 42.8256 15.0824V25.664C42.8256 26.6358 42.0861 27.4277 41.1785 27.4277H39.5314V13.3188ZM37.8842 41.5365C38.7918 41.5365 39.5314 42.3284 39.5314 43.3001V46.3653C39.5215 46.3635 39.5099 46.3635 39.5001 46.3618C39.4605 46.3565 39.4259 46.3371 39.3864 46.3318C39.2958 46.3194 39.2069 46.3371 39.1179 46.3283C38.8313 46.3036 38.548 46.3 38.2614 46.3177C38.1181 46.3265 37.9765 46.3265 37.8364 46.3459C37.4971 46.3918 37.1661 46.4764 36.8383 46.5822C36.6983 46.6281 36.5632 46.6757 36.4265 46.7304C36.3639 46.7551 36.2997 46.7709 36.2387 46.7974V43.3001H36.2371C36.2371 42.3284 36.9766 41.5365 37.8842 41.5365ZM37.1381 55.5784C36.3655 55.0828 35.8599 54.2504 35.7512 53.2945C35.6787 52.672 35.7989 52.0635 36.0559 51.5221C36.0625 51.508 36.074 51.4992 36.0806 51.4851C36.1514 51.3404 36.2222 51.217 36.2947 51.1024C36.3837 50.9701 36.471 50.836 36.5797 50.7197C36.8103 50.471 37.0788 50.2823 37.3604 50.1359C37.3835 50.1235 37.4065 50.1077 37.4296 50.0953C37.7113 49.9595 38.011 49.8749 38.3174 49.8414C38.3405 49.8396 38.3619 49.8361 38.3849 49.8343C38.6831 49.8079 38.9845 49.8361 39.281 49.9084C39.3123 49.9154 39.3436 49.9225 39.3732 49.9313C39.6812 50.0195 39.981 50.1553 40.2561 50.3563C40.2643 50.3616 40.2742 50.3652 40.2825 50.3705C40.6135 50.6174 40.9018 50.933 41.1176 51.3175L42.4007 53.6084L39.2777 56.9522L37.1381 55.5784ZM53.8154 68.2341C53.1895 68.7914 52.2885 68.7825 51.6758 68.2076L41.9395 59.0862L44.593 56.245L51.6774 62.3136C52.3857 62.9221 53.4234 62.8004 53.9916 62.0385L60.3084 53.5837L63.4561 52.2364L61.1287 61.7087L53.8154 68.2341ZM4.94131 75.0451C4.03374 75.0451 3.29417 74.2533 3.29417 73.2815C3.29417 72.3098 4.03374 71.5179 4.94131 71.5179H34.5899C35.4975 71.5179 36.2371 72.3098 36.2371 73.2815C36.2371 74.2533 35.4975 75.0451 34.5899 75.0451H4.94131ZM6.58846 82.0996V78.5723H32.9428V82.0996C32.9428 85.0166 30.7257 87.3904 28.0013 87.3904H11.5299C8.80551 87.3904 6.58846 85.0166 6.58846 82.0996ZM26.9834 90.9176L25.3363 94.4448H21.4128V90.9176H26.9834ZM18.1185 90.9176V94.4448H14.195L12.5478 90.9176H18.1185ZM95.5343 101.499H3.29417V97.972H13.177H26.3542H59.2971H85.6514H95.5343V101.499Z" fill="#64BF1F"/>
<path d="M77.4157 71.5179H67.5328C66.6236 71.5179 65.8857 72.308 65.8857 73.2815V78.5723C65.8857 82.4628 68.8407 85.6268 72.4743 85.6268C76.1079 85.6268 79.0629 82.4628 79.0629 78.5723V73.2815C79.0629 72.308 78.3249 71.5179 77.4157 71.5179ZM75.7686 78.5723C75.7686 80.5176 74.2911 82.0995 72.4743 82.0995C70.6575 82.0995 69.18 80.5176 69.18 78.5723V75.0451H75.7686V78.5723Z" fill="#64BF1F"/>
<path d="M21.4128 53.8818H18.1185V62.6999H21.4128V53.8818Z" fill="#64BF1F"/>
<path d="M29.6485 57.409H26.3542V64.4635H29.6485V57.409Z" fill="#64BF1F"/>
<path d="M13.177 57.409H9.88275V64.4635H13.177V57.409Z" fill="#64BF1F"/>
<path d="M21.4128 46.8274H18.1185V50.3546H21.4128V46.8274Z" fill="#64BF1F"/>
<path d="M13.177 50.3546H9.88275V53.8818H13.177V50.3546Z" fill="#64BF1F"/>
<path d="M29.6485 50.3546H26.3542V53.8818H29.6485V50.3546Z" fill="#64BF1F"/>
</g>
<defs>
<clipPath id="clip0_1_63">
<rect width="99" height="106" fill="white"/>
</clipPath>
</defs>
</svg>
