<svg width="172" height="157" viewBox="0 0 172 157" fill="none" xmlns="http://www.w3.org/2000/svg">
<g clip-path="url(#clip0_3_11)">
<path d="M171.601 79.0259C171.622 78.8533 171.636 78.6785 171.636 78.5007V78.5004C171.636 78.3222 171.622 78.1474 171.601 77.9748C171.595 77.9306 171.586 77.8871 171.579 77.8429C171.558 77.7092 171.532 77.5774 171.499 77.4477C171.493 77.4268 171.492 77.4057 171.486 77.3851C163.988 49.8614 137.042 38.7597 114.084 37.2437C104.879 25.5941 90.2513 18.7054 74.4459 18.7054H56.0242C52.6076 18.7054 50.1881 21.782 51.2694 24.7598C54.3324 33.1921 59.9226 40.4521 67.3759 45.8346C57.044 49.8886 47.4091 54.8397 39.0092 59.5515C37.1828 54.2669 33.8855 49.4692 29.3569 45.6343C22.8609 40.1332 14.4132 37.1039 5.56927 37.1039C2.80126 37.1039 0.55719 39.1633 0.55719 41.7035V60.1019C0.55719 67.1737 4.60294 73.2844 9.2605 78.5004C4.60294 83.7163 0.55719 89.8271 0.55719 96.8988V115.297C0.55719 117.837 2.80126 119.897 5.56927 119.897C14.4142 119.897 22.8629 116.867 29.3589 111.365C33.8878 107.529 37.1851 102.73 39.0108 97.4443C47.4114 102.156 57.0483 107.107 67.3822 111.162C59.9256 116.544 54.3331 123.806 51.2691 132.241C50.1891 135.216 52.6043 138.295 56.0242 138.295H74.4459C90.2537 138.295 104.882 131.405 114.087 119.753C137.044 118.238 163.989 107.137 171.486 79.6159C171.492 79.5951 171.493 79.5736 171.499 79.5528C171.532 79.4234 171.558 79.2921 171.579 79.1587C171.586 79.1143 171.595 79.0704 171.601 79.0259ZM108.572 110.738C77.8758 110.738 47.0161 91.2232 25.3209 78.4994C43.5905 67.7771 76.6669 46.2583 108.567 46.2583C110.157 46.2583 111.866 46.3138 113.649 46.438C105.611 55.4208 101.133 66.7085 101.133 78.5004C101.133 90.2907 105.61 101.577 113.646 110.559C111.876 110.682 110.169 110.738 108.572 110.738ZM63.6696 27.9047H74.4456C84.4219 27.9047 93.8089 31.3538 100.919 37.4075C93.4557 38.0738 86.0545 39.66 78.8752 41.8292C72.4123 38.5497 67.1861 33.7422 63.6696 27.9047ZM10.5813 46.7741C20.281 48.6185 28.1036 55.6937 30.1188 64.685C25.1227 67.6379 20.4792 70.4744 16.8688 72.5068C13.4536 68.6557 10.5813 64.3872 10.5813 60.1019V46.7741ZM10.5813 110.227V96.8988C10.5813 92.6132 13.4543 88.3445 16.8695 84.493C20.4251 86.4936 24.9914 89.2812 30.1198 92.3115C28.1062 101.305 20.2827 108.382 10.5813 110.227ZM63.6696 129.096C67.1874 123.256 72.4163 118.447 78.8836 115.168C86.0622 117.336 93.4624 118.923 100.924 119.589C93.8139 125.645 84.4246 129.096 74.4459 129.096H63.6696ZM125.521 108.758C116.369 100.923 111.157 90.0028 111.157 78.5004C111.157 66.9967 116.37 56.076 125.524 48.2405C139.655 51.5979 153.399 59.4886 159.741 73.9008H146.576C143.808 73.9008 141.564 75.9602 141.564 78.5004C141.564 81.0406 143.808 83.1 146.576 83.1H159.741C153.399 97.5121 139.653 105.402 125.521 108.758Z" fill="black"/>
<path d="M91.1087 78.5004C91.1087 74.1936 91.6173 69.8825 92.6204 65.6874C93.2138 63.206 91.5027 60.7532 88.7988 60.2089C86.0953 59.664 83.4222 61.2347 82.8291 63.716C81.6716 68.5575 81.0846 73.5316 81.0846 78.5004C81.0846 83.4689 81.6716 88.4432 82.8294 93.2851C83.4242 95.7731 86.102 97.3352 88.7992 96.7921C91.503 96.2475 93.2138 93.7947 92.6207 91.3137C91.6173 87.1179 91.1087 82.8068 91.1087 78.5004Z" fill="black"/>
<path d="M126.193 73.9008C128.961 73.9008 131.205 71.8414 131.205 69.3011C131.205 66.7609 128.961 64.7015 126.193 64.7015C123.425 64.7015 121.181 66.7609 121.181 69.3011C121.181 71.8414 123.425 73.9008 126.193 73.9008Z" fill="black"/>
</g>
<defs>
<clipPath id="clip0_3_11">
<rect width="171.079" height="157" fill="white" transform="translate(0.55719 0.000366211)"/>
</clipPath>
</defs>
</svg>
