<svg width="172" height="157" viewBox="0 0 172 157" fill="none" xmlns="http://www.w3.org/2000/svg">
<g clip-path="url(#clip0_3_7)">
<path d="M171.11 67.5951C171.041 34.4333 140.941 7.11712 104.971 7.25996C73.3839 7.37509 48.0364 27.6229 41.2191 53.4146C39.8266 58.683 35.233 62.6625 29.5166 63.5531C13.2987 66.0789 -0.0612662 78.4179 0.10411 97.6877C0.0229315 123.333 0.0309823 101.234 0.0309823 123.975C0.0309823 138.182 12.6264 149.741 28.108 149.741H105.237C140.98 149.741 171.103 128.307 171.103 112.452C171.103 112.442 171.11 67.5951 171.11 67.5951ZM31.2006 72.6579C40.8863 71.1497 48.6576 64.4505 50.9987 55.5916C57.0583 32.6656 79.269 16.5888 105.011 16.4953C105.085 16.4949 105.156 16.4949 105.23 16.4949C135.623 16.4949 160.988 39.7048 161.045 67.6126C161.104 95.9576 136.129 118.927 105.237 118.927H35.4829C22.1072 118.927 11.1223 109.384 10.1693 97.3281C10.2149 83.0325 19.5014 74.4803 31.2006 72.6579ZM161.039 112.452C161.039 121.374 137.275 140.506 105.237 140.506H28.108C18.1754 140.506 10.0944 133.09 10.0944 123.975C10.0944 120.073 10.0928 121.36 10.1025 118.318C16.5461 124.387 25.5425 128.162 35.4832 128.162H105.237C128.709 128.162 149.291 116.965 161.039 99.8743V112.452Z" fill="black"/>
<path d="M34.6342 111.893C111.824 111.893 107.297 111.918 107.849 111.842C132.995 110.768 152.975 91.7434 152.975 68.4268C152.975 44.4597 131.728 24.9609 105.611 24.9609C84.5564 24.9609 67.4283 37.229 60.9361 54.0311C55.6386 67.7418 43.8402 78.1368 29.3753 81.8371C21.6063 83.8248 17.6672 88.6983 17.6672 96.322C17.6672 104.908 25.2785 111.893 34.6342 111.893ZM32.0781 90.7334C49.6955 86.226 64.0296 73.6595 70.4212 57.1176C75.8015 43.1935 89.6146 34.1962 105.611 34.1962C126.179 34.1962 142.912 49.552 142.912 68.4268C142.912 86.9657 127.107 101.991 106.93 102.633C105.801 102.669 113.489 102.657 34.6342 102.657C30.8275 102.657 27.7306 99.8154 27.7306 96.322C27.7306 92.4675 29.0121 91.5178 32.0781 90.7334Z" fill="black"/>
<path d="M110.701 74.4898C119.379 74.4898 126.439 68.0106 126.439 60.0467C126.439 52.0831 119.379 45.6039 110.701 45.6039C102.023 45.6039 94.9626 52.0831 94.9626 60.0467C94.9626 68.0106 102.023 74.4898 110.701 74.4898ZM110.701 54.8392C113.83 54.8392 116.375 57.1755 116.375 60.0467C116.375 62.9183 113.83 65.2545 110.701 65.2545C107.572 65.2545 105.026 62.9183 105.026 60.0467C105.026 57.1755 107.572 54.8392 110.701 54.8392Z" fill="black"/>
</g>
<defs>
<clipPath id="clip0_3_7">
<rect width="171.079" height="157" fill="white" transform="translate(0.0306396 0.000366211)"/>
</clipPath>
</defs>
</svg>
