<svg width="99" height="93" viewBox="0 0 99 93" fill="none" xmlns="http://www.w3.org/2000/svg">
<path d="M92.017 89.6975C92.017 85.9712 87.4516 80.9415 81.283 79.4729C83.8566 77.8443 85.6328 74.6324 85.6328 71.7378C85.6328 67.6543 82.1087 64.3438 77.7703 64.3438C73.4177 64.3438 69.8994 67.6543 69.8994 71.7378C69.8994 74.6324 71.6784 77.8443 74.2491 79.4729C68.0834 80.9415 63.5152 85.9712 63.5152 89.6975C63.5124 94.1008 92.017 94.1008 92.017 89.6975Z" fill="#64BF1F"/>
<path d="M25.6159 16.7337C29.1315 16.7337 31.9916 12.8901 31.9916 9.58494C31.9916 6.26913 29.1315 3.59035 25.6159 3.59035C22.0919 3.59035 19.2318 6.26913 19.2318 9.58494C19.2318 12.8901 22.0919 16.7337 25.6159 16.7337Z" fill="#64BF1F"/>
<path d="M92.4993 34.3522V8.98521C92.4993 6.65295 90.4791 4.75782 87.9963 4.75782H70.5576V1.58594C70.5576 0.709008 69.8 0 68.8665 0C67.933 0 67.1754 0.711674 67.1754 1.58594V4.75782H49.7396C47.2597 4.75782 45.2394 6.65295 45.2394 8.98521V21.9739L36.5031 19.2365C35.9554 19.0553 31.0581 17.448 26.5466 17.2374L25.9422 18.3702H25.9309L27.6305 30.7992L25.6131 34.115L23.5928 30.7992L25.2896 18.3702H25.2754L24.6739 17.2374C19.995 17.4587 14.8905 19.1805 14.6635 19.2552C14.5699 19.2898 14.5103 19.3565 14.4252 19.3938C14.272 19.4657 14.1358 19.5377 14.0024 19.6363C13.8662 19.7269 13.7612 19.8282 13.6534 19.9402C13.5484 20.0575 13.4576 20.1694 13.3782 20.3C13.2874 20.4413 13.2221 20.5772 13.1682 20.7372C13.1398 20.8198 13.0803 20.8811 13.0576 20.9664L9.02276 38.0279C8.722 39.3046 9.57606 40.5734 10.938 40.8586C11.1224 40.8906 11.3012 40.9066 11.4885 40.9066C12.6461 40.9066 13.6875 40.1602 13.9428 39.0567L17.6712 23.312C17.9322 23.2347 18.2245 23.152 18.5508 23.0668V39.2487L16.5391 62.7019C16.4624 63.6082 16.8795 64.4211 17.5435 64.9889C14.8026 66.1483 12.8845 68.7178 12.8845 71.7271C12.8845 74.6218 14.6607 77.8336 17.2342 79.4622C11.0685 80.9309 6.50031 85.9606 6.50031 89.6869C6.50031 94.0902 35.0049 94.0902 35.0049 89.6869C35.0049 85.9606 30.4367 80.9309 24.271 79.4622C26.8474 77.8336 28.6236 74.6218 28.6236 71.7271C28.6236 68.0621 25.7833 65.0422 22.0578 64.4531C22.3274 64.0666 22.5345 63.6428 22.5771 63.1524L24.3902 41.9541C24.7675 42.106 25.179 42.1966 25.6188 42.1966C26.05 42.1966 26.4615 42.106 26.836 41.9541L28.6519 63.1524C28.7853 64.645 30.1075 65.7672 31.671 65.7672C31.7476 65.7672 31.8327 65.7645 31.9121 65.7592C33.5777 65.6339 34.8233 64.2639 34.69 62.6992L32.6811 39.2487V23.0694C33.9607 23.4106 34.8261 23.7011 34.8488 23.7118C34.8659 23.7171 34.8744 23.7171 34.8829 23.7198C34.8971 23.7225 34.9028 23.7251 34.9113 23.7278L45.248 26.9663V34.3522C45.248 36.6845 47.2682 38.5796 49.7481 38.5796H57.9397L50.7525 63.7787C50.6873 64.0186 50.6929 64.2532 50.7383 64.4771C50.2617 64.3945 49.7708 64.3385 49.2657 64.3385C44.9188 64.3385 41.3947 67.649 41.3947 71.7324C41.3947 74.6271 43.1738 77.839 45.7502 79.4675C39.5816 80.9362 35.0134 85.9659 35.0134 89.6922C35.0134 94.0955 63.518 94.0955 63.518 89.6922C63.518 85.9659 58.9498 80.9362 52.7869 79.4675C55.3605 77.839 57.1367 74.6271 57.1367 71.7324C57.1367 69.0723 55.6357 66.764 53.3913 65.458C53.6864 65.2554 53.9191 64.9569 54.0184 64.5997L61.4382 38.577H67.1896V57.0192C67.1896 57.8908 67.95 58.6025 68.8807 58.6025C69.8114 58.6025 70.5718 57.8908 70.5718 57.0192V38.577H76.3176L83.7374 64.5997C83.9388 65.3087 84.6227 65.7725 85.3689 65.7725C85.5136 65.7725 85.6611 65.7538 85.803 65.7165C86.6996 65.4873 87.2388 64.6184 87.0004 63.7734L79.8133 38.5743H88.0049C90.4791 38.5796 92.4993 36.6845 92.4993 34.3522ZM49.7424 36.4659C48.4996 36.4659 47.4895 35.517 47.4895 34.3522V27.5953C47.5973 27.6087 47.7051 27.646 47.813 27.646C48.8685 27.646 49.8559 27.0169 50.2077 26.0281C50.6447 24.7833 49.9325 23.4426 48.6103 23.0294L47.4867 22.6776V8.98521C47.4867 7.81775 48.4939 6.87151 49.7396 6.87151H87.9935C89.2363 6.87151 90.2464 7.81775 90.2464 8.98521V34.3522C90.2464 35.517 89.242 36.4659 87.9935 36.4659H49.7424Z" fill="#64BF1F"/>
</svg>
