<svg width="172" height="157" viewBox="0 0 172 157" fill="none" xmlns="http://www.w3.org/2000/svg">
<g clip-path="url(#clip0_3_27)">
<path d="M161.997 64.1074C160.639 61.894 157.583 61.1103 155.17 62.3561L109.089 86.1662H13.6157C10.8477 86.1662 8.60365 88.2256 8.60365 90.7658V115.297C8.60365 133.051 24.3426 147.494 43.6883 147.494H45.359V152.401C45.359 154.941 47.603 157 50.371 157H103.833C106.601 157 108.845 154.941 108.845 152.401V147.494H110.516C129.862 147.494 145.601 133.051 145.601 115.297V90.7658C145.601 88.2256 143.357 86.1662 140.589 86.1662H129.522L160.089 70.3721C162.501 69.1259 163.355 66.321 161.997 64.1074ZM135.577 95.3654V115.297H135.576C135.576 127.978 124.334 138.295 110.516 138.295H103.833C101.065 138.295 98.8212 140.355 98.8212 142.895V147.801H55.3831V142.895C55.3831 140.355 53.139 138.295 50.371 138.295H43.6883C29.8699 138.295 18.6278 127.978 18.6278 115.297V95.3654H110.383C110.392 95.3654 110.4 95.3661 110.408 95.3661C110.417 95.3661 110.426 95.3654 110.435 95.3654H135.577Z" fill="black"/>
<path d="M70.2603 1.04668C68.1222 -0.566251 64.9636 -0.282914 63.206 1.67928C61.4484 3.64148 61.7568 6.54016 63.8953 8.15309C66.9798 10.4799 68.7487 13.9348 68.7487 17.6323C68.7487 21.3298 66.9794 24.7847 63.8953 27.1115C58.4856 31.192 55.3831 37.2374 55.3831 43.6968C55.3831 47.7837 56.6328 51.7581 58.9975 55.1897C60.4687 57.3252 63.5602 57.9838 65.9118 56.619C68.2515 55.2615 68.9488 52.4201 67.4696 50.273C66.1203 48.3148 65.407 46.0405 65.407 43.6965C65.407 39.999 67.1762 36.5441 70.2603 34.2173C75.6701 30.1368 78.7725 24.0914 78.7725 17.632C78.7725 11.1726 75.6701 5.12746 70.2603 1.04668Z" fill="black"/>
<path d="M97.6808 27.744C95.9232 25.7815 92.7649 25.4982 90.6265 27.1114C85.2167 31.1919 82.1143 37.2373 82.1143 43.6967C82.1143 47.7839 83.3643 51.7583 85.729 55.1902C87.2032 57.33 90.2963 57.9816 92.6433 56.6201C94.983 55.2623 95.6803 52.4213 94.2011 50.2742C92.8515 48.3157 92.1381 46.0413 92.1381 43.697C92.1381 39.9996 93.907 36.5446 96.9915 34.2178C99.13 32.6049 99.4387 29.7062 97.6808 27.744Z" fill="black"/>
</g>
<defs>
<clipPath id="clip0_3_27">
<rect width="171.079" height="157" fill="white" transform="translate(0.0837708 0.000366211)"/>
</clipPath>
</defs>
</svg>
