<svg width="171" height="157" viewBox="0 0 171 157" fill="none" xmlns="http://www.w3.org/2000/svg">
<g clip-path="url(#clip0_3_132)">
<path d="M23.4213 138.938L23.3906 138.916C21.9264 137.887 19.8303 138.142 18.7081 139.486C17.5866 140.83 17.8645 142.755 19.3284 143.785L19.3591 143.807C19.9649 144.233 20.679 144.439 21.3877 144.439C22.3913 144.439 23.3839 144.025 24.0412 143.237C25.1634 141.892 24.8855 139.968 23.4213 138.938Z" fill="black"/>
<path d="M23.4213 113.793L23.3906 113.772C21.9264 112.742 19.8303 112.997 18.7081 114.342C17.5866 115.686 17.8645 117.611 19.3284 118.641L19.3591 118.662C19.9649 119.088 20.679 119.294 21.3877 119.294C22.3913 119.294 23.3839 118.88 24.0412 118.092C25.1634 116.748 24.8855 114.823 23.4213 113.793Z" fill="black"/>
<path d="M23.4213 88.6488L23.3906 88.6273C21.9264 87.5979 19.8303 87.8524 18.7081 89.1971C17.5866 90.5414 17.8645 92.4662 19.3284 93.4962L19.3591 93.5176C19.9649 93.9439 20.679 94.1499 21.3877 94.1499C22.3913 94.1499 23.3839 93.736 24.0412 92.9479C25.1634 91.6033 24.8855 89.6788 23.4213 88.6488Z" fill="black"/>
<path d="M151.642 138.928L151.611 138.907C150.141 137.884 148.046 138.149 146.932 139.499C145.818 140.848 146.106 142.772 147.577 143.795L147.608 143.816C148.211 144.236 148.92 144.439 149.622 144.439C150.632 144.439 151.63 144.02 152.287 143.225C153.401 141.875 153.112 139.951 151.642 138.928Z" fill="black"/>
<path d="M151.642 113.784L151.611 113.763C150.141 112.74 148.046 113.005 146.932 114.354C145.818 115.704 146.107 117.627 147.577 118.65L147.608 118.672C148.211 119.091 148.92 119.294 149.622 119.294C150.632 119.294 151.63 118.876 152.287 118.08C153.401 116.731 153.112 114.807 151.642 113.784Z" fill="black"/>
<path d="M151.642 88.6396L151.611 88.6181C150.141 87.5951 148.046 87.8601 146.932 89.2099C145.818 90.5597 146.107 92.4827 147.577 93.5056L147.608 93.5271C148.211 93.9469 148.92 94.1499 149.622 94.1499C150.632 94.1499 151.63 93.7313 152.287 92.9356C153.401 91.5861 153.112 89.6625 151.642 88.6396Z" fill="black"/>
<path d="M123.398 100.578H123.354C121.51 100.578 120.015 101.951 120.015 103.645C120.015 105.338 121.51 106.711 123.354 106.711H123.398C125.242 106.711 126.738 105.338 126.738 103.645C126.738 101.951 125.242 100.578 123.398 100.578Z" fill="black"/>
<path d="M47.6455 125.723H47.6021C45.7579 125.723 44.2623 127.096 44.2623 128.789C44.2623 130.483 45.7579 131.856 47.6021 131.856H47.6455C49.4898 131.856 50.9854 130.483 50.9854 128.789C50.9854 127.096 49.4901 125.723 47.6455 125.723Z" fill="black"/>
<path d="M26.9826 56.7869C26.3614 56.2166 25.4997 55.8885 24.6213 55.8885C23.743 55.8885 22.8813 56.2166 22.2601 56.7869C21.6392 57.3573 21.2815 58.1484 21.2815 58.958C21.2815 59.7644 21.6388 60.5525 22.2601 61.1228C22.8813 61.6963 23.7399 62.0213 24.6213 62.0213C25.4997 62.0213 26.3614 61.6963 26.9826 61.1228C27.6035 60.5525 27.9612 59.7644 27.9612 58.958C27.9612 58.1484 27.6038 57.3604 26.9826 56.7869Z" fill="black"/>
<path d="M167.66 75.4338H153.788C159.757 72.2815 163.788 66.3707 163.788 59.6077C163.788 52.5869 159.45 46.3373 152.84 43.2963C153.98 40.9689 154.572 38.4413 154.572 35.8302C154.572 25.7681 145.656 17.5817 134.696 17.5817C131.241 17.5817 127.922 18.3821 124.965 19.9137C121.085 17.403 116.445 16.0418 111.654 16.0418C111.329 16.0418 111.007 16.0522 110.685 16.0645C107.157 6.62055 97.3174 0.0149019 86.2358 0.0149019C76.243 0.0149019 67.2007 5.32868 62.9404 13.4709C62.1411 13.4028 61.3382 13.3685 60.536 13.3685C50.0339 13.3685 40.7063 19.1913 36.7239 27.8738C36.0172 27.6757 35.2981 27.5028 34.5684 27.3528C34.9511 23.4337 36.3051 20.4292 38.6153 18.409C40.6275 16.6492 42.6488 16.2846 42.734 16.2699L42.6875 16.277L42.6869 16.2736C43.3929 16.1782 44.0612 15.8793 44.5685 15.4113C45.1894 14.841 45.5471 14.0529 45.5471 13.2464C45.5471 12.4369 45.1898 11.6488 44.5685 11.0754C43.9473 10.5051 43.0857 10.177 42.2073 10.177C42.0199 10.177 41.8339 10.1951 41.6502 10.2239L41.6492 10.2187C39.666 10.5054 36.9537 11.5259 34.4522 13.5994V3.06659C34.4522 1.37301 32.9566 0.000183105 31.1123 0.000183105H23.0967C21.2524 0.000183105 19.7568 1.37301 19.7568 3.06659V14.5322C15.9147 10.2089 11.7669 7.68153 11.4453 7.48865C9.90264 6.56475 7.83928 6.96399 6.83031 8.37822C5.82101 9.79275 6.25219 11.6924 7.79052 12.6218C7.90107 12.6884 18.0058 18.9009 19.507 27.8379C8.20533 30.9549 0 40.0747 0 50.8148C0 55.2771 2.77174 65.9917 5.49204 75.4338H3.33984C1.49558 75.4338 0 76.8066 0 78.5002V153.934C0 155.627 1.49558 157 3.33984 157H167.66C169.504 157 171 155.627 171 153.934V78.5002C171 76.8066 169.504 75.4338 167.66 75.4338ZM60.536 19.5013C61.8208 19.5013 63.1073 19.6194 64.3608 19.8524C65.992 20.1554 67.6168 19.3106 68.1719 17.87C70.8748 10.8586 78.134 6.14771 86.2358 6.14771C94.1312 6.14771 101.177 10.6673 104.037 17.2303C95.0159 20.1284 88.5252 28.0173 88.5252 37.2766C88.5252 38.9702 90.0208 40.343 91.8651 40.343C93.7093 40.343 95.2049 38.9702 95.2049 37.2766C95.2049 28.9492 102.584 22.1746 111.654 22.1746C115.676 22.1746 119.55 23.5247 122.56 25.9766C123.748 26.9435 125.513 27.0094 126.782 26.1349C129.079 24.5514 131.815 23.7145 134.696 23.7145C141.972 23.7145 147.892 29.1497 147.892 35.8302C147.892 38.4566 146.992 40.9554 145.288 43.0559C144.622 43.8774 144.446 44.9503 144.821 45.9153C145.195 46.8803 146.069 47.6101 147.151 47.8607C153.014 49.2178 157.108 54.0484 157.108 59.6077C157.108 66.2882 151.188 71.7234 143.912 71.7234C143.083 71.7234 142.242 71.6492 141.41 71.503C139.791 71.2172 138.189 72.0598 137.635 73.4851C137.373 74.1588 137.042 74.811 136.653 75.4338H132.437L146.113 57.434C146.627 56.7575 146.823 55.9192 146.656 55.1087C146.488 54.2983 145.972 53.5838 145.224 53.1269L135.487 47.1775C134.729 46.7138 133.796 46.5547 132.907 46.7377C132.018 46.9205 131.249 47.4286 130.778 48.1449L125.909 55.5472L129.895 37.0356C130.25 35.3831 129.088 33.7766 127.291 33.4375L118.793 31.8329C117.915 31.6667 117 31.8322 116.256 32.2916C115.512 32.7509 115 33.4657 114.836 34.2749L113.746 39.6519H105.952C104.107 39.6519 102.612 41.0247 102.612 42.7183V60.3636C100.392 49.9289 90.3635 42.0283 78.3587 42.0283C72.9492 42.0283 67.8112 43.6042 63.5008 46.5856C59.9462 49.044 57.1544 52.39 55.4745 56.1519C55.9 53.849 56.1097 52.0828 56.1097 50.8151C56.1097 46.6568 54.8796 42.7407 52.7164 39.3216C54.4712 34.9382 59.0331 31.9604 64.1931 31.9604C65.0131 31.9604 65.8347 32.0362 66.6356 32.1852C68.2677 32.49 69.8949 31.6427 70.449 30.2006C71.1657 28.3368 72.4128 26.6696 74.056 25.3793C75.4574 24.2785 75.6217 22.3426 74.4227 21.0557C73.2241 19.7687 71.116 19.6181 69.7136 20.7187C67.8787 22.1599 66.3637 23.9071 65.2472 25.8546C64.8962 25.8365 64.5445 25.8276 64.1935 25.8276C57.5458 25.8276 51.5408 29.0228 48.1529 34.0063C46.5664 32.6041 44.7856 31.3668 42.8455 30.3272C45.7779 23.8504 52.7181 19.5013 60.536 19.5013ZM122.112 73.1815L134.692 54.0579L138.682 56.496L124.293 75.4338H121.627L122.112 73.1815ZM117.934 60.9594V52.4449C117.952 52.3805 117.971 52.3168 117.985 52.2505L120.78 38.4689L122.699 38.8313L117.934 60.9594ZM109.267 70.1145C109.282 69.9983 109.291 69.8805 109.291 69.7609V45.7844H111.255V75.4338H110.201C110.21 75.2418 110.215 75.0496 110.215 74.8567C110.215 73.1852 109.877 71.587 109.267 70.1145ZM63.457 55.8088C63.3582 55.8088 63.261 55.8146 63.1621 55.8155C66.4275 51.1607 72.1493 48.1609 78.3584 48.1609C87.1829 48.1609 94.5426 54.0119 96.0896 61.7095C91.4683 61.7395 87.373 63.8747 84.8387 67.1413C80.5567 60.3731 72.5791 55.8088 63.457 55.8088ZM81.1772 75.4338H46.2625H45.7372C47.3086 67.7641 54.6542 61.9416 63.4574 61.9416C72.2605 61.9416 79.6058 67.7641 81.1772 75.4338ZM96.1875 67.8401C100.239 67.8401 103.535 70.9878 103.535 74.8567C103.535 75.0502 103.525 75.2424 103.509 75.4338H88.8659C88.8495 75.2424 88.8395 75.0502 88.8395 74.8567C88.8398 70.9878 92.1359 67.8401 96.1875 67.8401ZM26.4365 6.133H27.7725V26.6954C27.3246 26.6994 26.8791 26.7104 26.4365 26.7322V6.133ZM6.87908 48.3911C7.08748 48.4286 7.30257 48.4494 7.52266 48.4494H24.0342C25.8784 48.4494 27.374 47.0766 27.374 45.383C27.374 43.6894 25.8784 42.3166 24.0342 42.3166H9.21997C12.8303 36.6698 19.9178 32.8221 28.0547 32.8221C39.841 32.8221 49.4297 40.8935 49.4297 50.8148C49.4297 51.6149 49.2904 53.091 48.7597 55.8088H35.4942C33.6499 55.8088 32.1543 57.1816 32.1543 58.8752C32.1543 60.5688 33.6499 61.9416 35.4942 61.9416H46.5845C42.5322 65.4247 39.7572 70.1412 38.9743 75.4338H12.4045C8.75573 62.9271 6.67969 54.0155 6.67969 50.8148C6.67969 49.9927 6.75149 49.1847 6.87908 48.3911ZM164.32 100.578H134.93C133.085 100.578 131.59 101.951 131.59 103.645C131.59 105.338 133.085 106.711 134.93 106.711H164.32V125.723H58.9836C57.1394 125.723 55.6438 127.096 55.6438 128.789C55.6438 130.483 57.1394 131.856 58.9836 131.856H164.32V150.867H6.67969V131.856H36.0703C37.9146 131.856 39.4102 130.483 39.4102 128.789C39.4102 127.096 37.9146 125.723 36.0703 125.723H6.67969V106.711H112.016C113.861 106.711 115.356 105.338 115.356 103.645C115.356 101.951 113.861 100.578 112.016 100.578H6.67969V81.5666H9.84686H164.32V100.578Z" fill="black"/>
<path d="M81.9815 16.5588H81.9374C80.0931 16.5588 78.5975 17.9316 78.5975 19.6252C78.5975 21.3188 80.0931 22.6916 81.9374 22.6916H81.9815C83.8257 22.6916 85.3213 21.3188 85.3213 19.6252C85.3213 17.9316 83.8257 16.5588 81.9815 16.5588Z" fill="black"/>
</g>
<defs>
<clipPath id="clip0_3_132">
<rect width="171" height="157" fill="white"/>
</clipPath>
</defs>
</svg>
